<?xml version="1.0" encoding="UTF-8"?>
<svg xmlns="http://www.w3.org/2000/svg" viewBox="0 0 440 440">
  <style>
    .circle {
      fill: none;
      stroke: black;
      stroke-width: 20;
    }

    .core {
      fill: black;
      stroke: black;
    }

    @media (prefers-color-scheme: dark) {
      .circle {
        stroke: white;
      }
      .core {
        fill: white;
        stroke: white;
      }
    }
  </style>

  <path class="circle" d="M217.727 10C332.575 10.0003 425.452 101.849 425.452 214.874C425.452 327.899 332.575 419.748 217.727 419.748C102.878 419.748 10 327.899 10 214.874C10 101.849 102.878 10 217.727 10Z" />

  <path class="core" d="M288.639 270.722C346.279 376.813 442.139 255.248 406.199 150.506L428.739 184.11L419.147 260.783L378.383 353.548L309.805 403.244L224.441 420.282L136.199 403.244L69.5386 361.121L16.306 266.936L8.63281 162.339L29.2544 150.033C-1.86084 254.248 94.1618 376.68 145.639 270.722C156.877 247.591 187.139 216.248 218.139 216.248C249.139 216.248 273.58 243.004 288.639 270.722Z" />
</svg>
