<svg width="436" height="430" viewBox="0 0 436 430" fill="none" xmlns="http://www.w3.org/2000/svg">
<path d="M217.727 10C332.575 10.0003 425.452 101.849 425.452 214.874C425.452 327.899 332.575 419.748 217.727 419.748C102.878 419.748 10 327.899 10 214.874C10 101.849 102.878 10 217.727 10Z" stroke="white" stroke-width="20"/>
<path d="M288.639 270.722C346.278 376.813 442.139 255.248 406.198 150.506L428.738 184.11L419.147 260.783L378.383 353.548L309.804 403.244L224.44 420.282L136.199 403.244L69.5381 361.121L16.3055 266.936L8.63232 162.339L29.254 150.033C-1.86133 254.248 94.1613 376.68 145.639 270.722C156.877 247.591 187.139 216.248 218.139 216.248C249.139 216.248 273.579 243.004 288.639 270.722Z" fill="white" stroke="white"/>
</svg>
