<svg width="3919" height="587" viewBox="0 0 3919 587" fill="none" xmlns="http://www.w3.org/2000/svg">
<path d="M297.278 10C456.062 10 584.556 136.999 584.557 293.384C584.557 449.769 456.062 576.769 297.278 576.769C138.494 576.769 10 449.769 10 293.384C10.0002 136.999 138.494 10 297.278 10Z" stroke="black" stroke-width="20"/>
<path d="M394.102 369.638C472.802 514.492 603.687 348.51 554.615 205.498L585.39 251.38L572.294 356.068L516.636 482.727L423 550.58L306.446 573.844L185.963 550.58L94.9465 493.066L22.2639 364.468L11.7871 221.654L39.9434 204.852C-2.54069 347.144 128.566 514.311 198.853 369.638C214.196 338.055 255.516 295.26 297.842 295.26C340.169 295.26 373.539 331.792 394.102 369.638Z" fill="black" stroke="black"/>
<path d="M791.3 521V514.5L803 509.95C811.667 506.483 817.517 502.15 820.55 496.95C824.017 491.75 825.75 484.817 825.75 476.15V136.85C825.75 127.75 824.017 120.6 820.55 115.4C817.517 110.2 811.667 106.083 803 103.05L791.3 98.5V92H977.85C1030.72 92 1068.85 101.75 1092.25 121.25C1115.65 140.317 1127.35 164.583 1127.35 194.05C1127.35 216.15 1118.68 236.3 1101.35 254.5C1084.45 272.267 1055.2 284.833 1013.6 292.2C1061.27 297.4 1096.15 309.967 1118.25 329.9C1140.35 349.4 1151.4 373.233 1151.4 401.4C1151.4 415.267 1148.37 429.35 1142.3 443.65C1136.23 457.517 1125.83 470.3 1111.1 482C1096.8 493.7 1077.08 503.233 1051.95 510.6C1026.82 517.533 994.967 521 956.4 521H791.3ZM921.95 291.55H949.9C978.933 291.55 999.733 284.833 1012.3 271.4C1025.3 257.967 1031.8 234.567 1031.8 201.2C1031.8 166.533 1025.95 141.833 1014.25 127.1C1002.55 112.367 983.483 105 957.05 105H921.95V291.55ZM921.95 508H954.45C986.95 508 1011 499.333 1026.6 482C1042.63 464.667 1050.65 437.583 1050.65 400.75C1050.65 366.083 1043.07 341.383 1027.9 326.65C1012.73 311.917 987.817 304.55 953.15 304.55H921.95V508ZM1369.96 532.7C1337.02 532.7 1307.77 526.85 1282.21 515.15C1257.07 503.45 1237.36 485.033 1223.06 459.9C1209.19 434.333 1202.26 400.75 1202.26 359.15V134.9C1202.26 118.433 1193.81 107.6 1176.91 102.4L1162.61 98.5V92H1342.66V98.5L1323.81 103.7C1307.77 107.6 1299.76 118.433 1299.76 136.2V376.05C1299.76 416.35 1308.21 446.25 1325.11 465.75C1342.01 484.817 1366.27 494.35 1397.91 494.35C1430.84 494.35 1456.84 484.167 1475.91 463.8C1495.41 443.433 1505.16 414.617 1505.16 377.35V138.8C1505.16 130.133 1503.64 122.55 1500.61 116.05C1498.01 109.117 1492.37 104.567 1483.71 102.4L1467.46 98.5V92H1558.46V98.5L1540.91 103.05C1532.67 104.783 1527.26 108.9 1524.66 115.4C1522.06 121.9 1520.76 129.483 1520.76 138.15V376.05C1520.76 407.683 1514.47 435.417 1501.91 459.25C1489.34 482.65 1471.79 500.85 1449.26 513.85C1426.72 526.417 1400.29 532.7 1369.96 532.7ZM1575.24 521V514.5L1588.89 509.95C1597.55 506.917 1603.19 503.017 1605.79 498.25C1608.39 493.05 1609.69 485.9 1609.69 476.8V136.85C1609.69 128.183 1608.39 121.467 1605.79 116.7C1603.62 111.5 1598.42 107.383 1590.19 104.35L1575.24 98.5V92H1761.14C1812.27 92 1851.49 101.75 1878.79 121.25C1906.09 140.317 1919.74 166.967 1919.74 201.2C1919.74 220.267 1912.59 239.333 1898.29 258.4C1883.99 277.467 1861.45 292.2 1830.69 302.6L1921.04 482C1924.94 489.367 1929.27 495.433 1934.04 500.2C1939.24 504.533 1945.95 508.433 1954.19 511.9L1962.64 515.15V521H1846.29L1750.09 316.25H1705.89V476.8C1705.89 485.033 1707.19 491.75 1709.79 496.95C1712.39 502.15 1717.8 506.05 1726.04 508.65L1741.64 514.5V521H1575.24ZM1705.89 303.25H1737.09C1768.29 303.25 1790.82 295.017 1804.69 278.55C1818.55 261.65 1825.49 236.733 1825.49 203.8C1825.49 170.433 1818.99 145.733 1805.99 129.7C1792.99 113.233 1771.1 105 1740.34 105H1705.89V303.25ZM1995.65 521V514.5L2017.1 508C2024.9 505.833 2030.53 501.717 2034 495.65C2037.47 489.15 2039.2 481.567 2039.2 472.9V160.25C2034.43 149.85 2030.53 142.05 2027.5 136.85C2024.9 131.65 2021.87 127.317 2018.4 123.85C2014.93 119.95 2010.17 115.183 2004.1 109.55L1993.05 98.5V92H2108.1L2323.9 386.45V141.4C2323.9 132.733 2322.38 124.933 2319.35 118C2316.75 111.067 2311.12 106.517 2302.45 104.35L2281 98.5V92H2373.95V98.5L2356.4 104.35C2348.6 106.95 2343.83 111.5 2342.1 118C2340.37 124.5 2339.5 132.083 2339.5 140.75V522.95H2303.1L2054.8 181.7V472.9C2054.8 481.567 2056.1 488.933 2058.7 495C2061.3 501.067 2066.72 505.4 2074.95 508L2094.45 514.5V521H1995.65ZM2498.96 521V514.5L2525.61 508C2543.37 504.1 2552.26 493.267 2552.26 475.5V105H2497.01C2480.97 105 2469.49 109.333 2462.56 118C2455.62 126.233 2448.26 137.717 2440.46 152.45L2417.06 197.95H2410.56L2413.81 92H2788.86L2791.46 197.95H2784.96L2761.56 152.45C2754.19 137.717 2747.04 126.233 2740.11 118C2733.17 109.333 2721.69 105 2705.66 105H2650.41V475.5C2650.41 493.267 2659.29 504.1 2677.06 508L2703.71 514.5V521H2498.96ZM2819.38 521V514.5L2831.08 509.95C2839.74 506.483 2845.59 502.15 2848.63 496.95C2852.09 491.75 2853.83 484.817 2853.83 476.15V136.85C2853.83 127.75 2852.09 120.6 2848.63 115.4C2845.59 110.2 2839.74 106.083 2831.08 103.05L2819.38 98.5V92H3005.93C3058.79 92 3096.93 101.75 3120.33 121.25C3143.73 140.317 3155.43 164.583 3155.43 194.05C3155.43 216.15 3146.76 236.3 3129.43 254.5C3112.53 272.267 3083.28 284.833 3041.68 292.2C3089.34 297.4 3124.23 309.967 3146.33 329.9C3168.43 349.4 3179.48 373.233 3179.48 401.4C3179.48 415.267 3176.44 429.35 3170.38 443.65C3164.31 457.517 3153.91 470.3 3139.18 482C3124.88 493.7 3105.16 503.233 3080.03 510.6C3054.89 517.533 3023.04 521 2984.48 521H2819.38ZM2950.03 291.55H2977.98C3007.01 291.55 3027.81 284.833 3040.38 271.4C3053.38 257.967 3059.88 234.567 3059.88 201.2C3059.88 166.533 3054.03 141.833 3042.33 127.1C3030.63 112.367 3011.56 105 2985.13 105H2950.03V291.55ZM2950.03 508H2982.53C3015.03 508 3039.08 499.333 3054.68 482C3070.71 464.667 3078.73 437.583 3078.73 400.75C3078.73 366.083 3071.14 341.383 3055.98 326.65C3040.81 311.917 3015.89 304.55 2981.23 304.55H2950.03V508ZM3175.27 521V514.5L3191.52 508.65C3200.18 505.183 3206.9 501.067 3211.67 496.3C3216.43 491.1 3220.33 483.95 3223.37 474.85L3357.27 90.7H3412.52L3544.47 477.45C3547.93 486.983 3551.83 494.35 3556.17 499.55C3560.5 504.317 3567.22 508.433 3576.32 511.9L3584.12 514.5V521H3419.02V514.5L3428.77 511.25C3437.87 507.783 3443.28 503.017 3445.02 496.95C3447.18 490.45 3446.97 482.867 3444.37 474.2L3413.82 380.6H3269.52L3238.32 472.25C3235.28 481.783 3234.2 489.367 3235.07 495C3236.37 500.633 3241.57 505.183 3250.67 508.65L3264.97 514.5V521H3175.27ZM3274.07 367.6H3409.92L3344.27 165.45L3274.07 367.6ZM3641.67 521V514.5L3661.17 509.3C3676.34 504.967 3683.92 494.133 3683.92 476.8V353.3L3576.67 134.9C3572.77 126.233 3569.09 119.733 3565.62 115.4C3562.59 111.067 3557.82 107.383 3551.32 104.35L3539.62 98.5V92H3713.82V98.5L3702.12 103.05C3692.59 106.95 3687.39 112.367 3686.52 119.3C3685.66 125.8 3687.39 134.033 3691.72 144L3768.42 314.3L3854.22 137.5C3857.69 130.567 3858.99 123.417 3858.12 116.05C3857.69 108.683 3853.14 103.917 3844.47 101.75L3835.37 98.5V92H3913.37V98.5L3901.02 103.05C3892.79 106.083 3886.72 110.417 3882.82 116.05C3878.92 121.25 3875.02 127.967 3871.12 136.2L3782.07 323.4V476.8C3782.07 485.467 3783.59 492.617 3786.62 498.25C3790.09 503.45 3795.94 507.133 3804.17 509.3L3824.32 514.5V521H3641.67Z" fill="black"/>
</svg>
